<?xml version="1.0" encoding="utf-8"?>
<!-- Generator: Adobe Illustrator 27.5.0, SVG Export Plug-In . SVG Version: 6.00 Build 0)  -->
<svg version="1.1" xmlns="http://www.w3.org/2000/svg" xmlns:xlink="http://www.w3.org/1999/xlink" x="0px" y="0px"
	 viewBox="0 0 500 500" style="enable-background:new 0 0 500 500;" xml:space="preserve">
<g id="BACKGROUND">
	<g style="opacity:0.25;">
		<g>
			<g style="opacity:0.41;">
				<g>
					<g>
						<path style="fill:#53D0F7;" d="M474.612,303.53c0.42-7.227,0.232-14.487-0.583-21.675c-3.827-33.777-21.155-65.627-46.66-88.1
							c-9.099-8.018-19.452-15.2-25.374-25.783c-9.972-17.823-9.217-38.306-21.593-55.903
							c-12.391-17.618-30.448-31.357-50.812-38.413c-60.716-21.038-145.721,13.217-138.067,86.37
							c0.027,0.262,0.057,0.644,0.09,1.127c1.018,15.195-10.909,27.971-26.087,28.331c-56.019,1.329-104.239,44.52-114.557,99.229
							c-6.636,35.184,4.23,73.749,29.967,98.639c19.212,18.579,44.988,28.786,70.778,35.8
							c51.708,14.063,106.122,17.01,159.438,11.633c49.907-5.033,102.55-19.381,134.827-57.777
							C463.196,356.524,473.06,330.258,474.612,303.53z"/>
					</g>
				</g>
			</g>
			<g style="opacity:0.31;">
				
					<ellipse transform="matrix(0.2871 -0.9579 0.9579 0.2871 249.8071 469.9253)" style="fill:#53D0F7;" cx="440.617" cy="67.133" rx="19.727" ry="19.727"/>
			</g>
			<g style="opacity:0.31;">
				<path style="fill:#53D0F7;" d="M408.307,46.216c0.708,3.721-1.735,7.312-5.456,8.02c-3.721,0.708-7.312-1.735-8.02-5.456
					c-0.708-3.721,1.735-7.312,5.456-8.02C404.009,40.052,407.6,42.495,408.307,46.216z"/>
			</g>
			<g style="opacity:0.31;">
				
					<ellipse transform="matrix(0.2298 -0.9732 0.9732 0.2298 36.4963 215.9164)" style="fill:#53D0F7;" cx="154.659" cy="84.901" rx="9.191" ry="9.191"/>
			</g>
			<g style="opacity:0.31;">
				
					<ellipse transform="matrix(0.2283 -0.9736 0.9736 0.2283 -381.0002 394.483)" style="fill:#53D0F7;" cx="58.337" cy="437.574" rx="15.088" ry="15.088"/>
			</g>
		</g>
	</g>
	<circle style="opacity:0.58;fill:#FFA000;" cx="89.937" cy="66.493" r="4.5"/>
	<path style="opacity:0.58;fill:#FFA000;" d="M30.95,294.84c0,0.986-0.799,1.785-1.785,1.785s-1.785-0.799-1.785-1.785
		c0-0.986,0.799-1.785,1.785-1.785S30.95,293.854,30.95,294.84z"/>
	<path style="opacity:0.58;fill:#FFA000;" d="M473.044,110.182c0,0.986-0.799,1.785-1.785,1.785c-0.986,0-1.785-0.799-1.785-1.785
		c0-0.986,0.799-1.785,1.785-1.785C472.245,108.397,473.044,109.197,473.044,110.182z"/>
	<path style="opacity:0.58;fill:#2F7DED;" d="M57.899,37.33c0,0.986-0.799,1.785-1.785,1.785c-0.986,0-1.785-0.799-1.785-1.785
		c0-0.986,0.799-1.785,1.785-1.785C57.1,35.545,57.899,36.344,57.899,37.33z"/>
	<path style="opacity:0.58;fill:#2F7DED;" d="M476.614,229.245c0,0.986-0.799,1.785-1.785,1.785c-0.986,0-1.785-0.799-1.785-1.785
		c0-0.986,0.799-1.785,1.785-1.785C475.815,227.46,476.614,228.259,476.614,229.245z"/>
	<path style="opacity:0.58;fill:#2F7DED;" d="M213.552,37.33c0,0.986-0.799,1.785-1.785,1.785c-0.986,0-1.785-0.799-1.785-1.785
		c0-0.986,0.799-1.785,1.785-1.785C212.753,35.545,213.552,36.344,213.552,37.33z"/>
	<path style="opacity:0.58;fill:#FFA000;" d="M337.165,43.864c-0.623,2.919-3.495,4.779-6.413,4.156
		c-2.919-0.623-4.779-3.495-4.156-6.413c0.623-2.919,3.495-4.779,6.413-4.156C335.927,38.074,337.788,40.945,337.165,43.864z"/>
	<g style="opacity:0.25;">
		<g>
			<g>
				<g style="opacity:0.47;">
					<path style="fill:#53D0F7;" d="M76.583,96.827c-4.731-8.818-15.715-12.132-24.534-7.4
						c-8.818,4.731-18.258,19.003-13.527,27.821c4.731,8.818,18.802,1.881,28.809,1.998C81.288,119.41,81.315,105.646,76.583,96.827
						z"/>
				</g>
			</g>
			<g>
				<g style="opacity:0.47;">
					<path style="fill:#53D0F7;" d="M472.575,364.862c6.259-9.954,7.828-22.304,6.525-33.99
						c-1.295-11.612-4.853-23.796-9.822-34.357c-4.71-10.009-11.527-18.938-13.47-30.087c-2.567-14.73,4.156-28.889,5.717-43.338
						c3.107-28.765-16.332-54.11-40.448-67.796c-19.587-11.116-42.55-15.287-65.069-14.99c-20.268,0.267-40.5,3.863-60.14,8.698
						c-18.927,4.659-37.432,10.799-57.271,8.862c-16.5-1.611-31.36-8.464-46.726-13.574c-36.685-12.2-81.124-13.921-114.67,4.652
						c-21.529,11.92-36.598,31.277-43.281,52.089c-4.895,15.244-6.347,32.772-2.76,48.199c4.031,17.335,11.478,32.605,9.512,50.865
						c-1.614,14.984-7.118,29.592-6.632,44.792c0.418,13.064,5.312,26.129,12.92,36.695c0.492,0.682,1.015,1.355,1.604,1.953h402.62
						C459.613,378.99,467.48,372.965,472.575,364.862z"/>
				</g>
				<g>
					<g style="opacity:0.81;">
						<path style="fill:#53D0F7;" d="M420.887,354.887c1.426-11.102-1.913-21.414-1.475-32.204
							c0.842-20.749,19.904-35.074,26.546-53.726c8.411-23.619,8.007-50.085-2.207-73.1c-4.923-11.092-12.114-21.4-21.934-28.529
							c-15.139-10.99-34.975-13.4-53.63-12.006c-27.764,2.075-57.06,13.622-84.975,10.473
							c-15.404-1.738-20.108-17.756-28.064-28.322c-8.998-11.95-21.252-21.337-34.799-27.585
							c-24.952-11.508-54.898-12.597-80.4-2.162c-27.227,11.14-50.958,38.346-49.398,69.114c0.722,14.234,6.652,28.371,3.907,42.357
							c-3.446,17.552-17.211,33.546-27.186,47.847c-11.016,15.794-17.685,34.628-18.993,53.843
							c-1.483,21.786,3.944,43.986,15.283,62.647h347.755C416.363,374.745,419.596,364.935,420.887,354.887z"/>
					</g>
				</g>
			</g>
		</g>
	</g>
	<path style="fill:#233863;" d="M447.73,387.822H52.27c-0.873,0-1.581-0.708-1.581-1.581l0,0c0-0.873,0.708-1.58,1.581-1.58H447.73
		c0.873,0,1.581,0.708,1.581,1.58l0,0C449.311,387.114,448.603,387.822,447.73,387.822z"/>
</g>
<g id="OBJECTS">
	<g>
		<g>
			<g>
				<g>
					<path style="fill:#FFA000;" d="M385.849,292.947h-76.915c-3.093,0-5.608-2.516-5.608-5.608v-46.662
						c0-3.725,3.03-6.755,6.755-6.755h55.181c0.553,0,1,0.448,1,1c0,0.552-0.447,1-1,1H310.08c-2.622,0-4.755,2.133-4.755,4.755
						v46.662c0,1.989,1.619,3.608,3.608,3.608h76.915c1.989,0,3.607-1.619,3.607-3.608v-45.443c0-3.294-2.68-5.974-5.973-5.974
						h-10.66c-0.553,0-1-0.448-1-1c0-0.552,0.447-1,1-1h10.66c4.397,0,7.973,3.577,7.973,7.974v45.443
						C391.456,290.432,388.94,292.947,385.849,292.947z"/>
					<path style="fill:#FFA000;" d="M306.978,291.579c-0.275,0-0.55-0.113-0.747-0.335c-0.367-0.413-0.33-1.045,0.082-1.412
						l31.422-27.954c0.411-0.368,1.046-0.33,1.412,0.082c0.367,0.413,0.33,1.045-0.082,1.412l-31.422,27.954
						C307.452,291.496,307.214,291.579,306.978,291.579z"/>
					<path style="fill:#FFA000;" d="M387.486,292.353c-0.236,0-0.473-0.083-0.663-0.252l-31.377-27.813
						c-0.413-0.366-0.451-0.998-0.085-1.411c0.366-0.416,0.998-0.451,1.411-0.085l31.377,27.814
						c0.413,0.366,0.451,0.998,0.085,1.411C388.037,292.239,387.762,292.353,387.486,292.353z"/>
				</g>
				<path style="fill:#FFA000;" d="M347.4,269.587c-1.04,0-2.08-0.326-2.966-0.978l-39.785-29.237
					c-0.445-0.327-0.541-0.953-0.214-1.398c0.327-0.444,0.953-0.543,1.398-0.213l39.786,29.237c1.061,0.78,2.488,0.782,3.553,0.007
					l38.936-28.387c0.446-0.325,1.072-0.226,1.397,0.219c0.326,0.446,0.227,1.072-0.219,1.398l-38.936,28.387
					C349.467,269.265,348.434,269.587,347.4,269.587z"/>
			</g>
			<g>
				<path style="fill:#2F7DED;" d="M386.529,227.686c0.83,0.609,1.946,0.613,2.78,0.005l33.091-24.126
					c-1.278-1.579-3.23-2.59-5.42-2.59h-59.348c-1.831,0-3.458,0.858-4.512,2.19c0.038,0.021,0.08,0.027,0.115,0.054
					L386.529,227.686z"/>
				<path style="fill:#2F7DED;" d="M390.487,229.307c-0.768,0.56-1.666,0.839-2.564,0.839c-0.903,0-1.808-0.283-2.577-0.85
					l-5.053-3.713l-25.531,22.713c-0.019,0.017-0.043,0.023-0.063,0.038c0.549,0.231,1.153,0.36,1.786,0.36h62.861
					c0.357,0,0.7-0.049,1.034-0.126l-25.413-22.527L390.487,229.307z"/>
				<path style="fill:#2F7DED;" d="M378.644,224.372l-26.472-19.453c-0.189,0.57-0.295,1.177-0.295,1.811v37.357
					c0,1.233,0.491,2.347,1.28,3.174c0.052-0.17,0.132-0.332,0.274-0.458L378.644,224.372z"/>
				<path style="fill:#2F7DED;" d="M422.132,247.449c0.057,0.051,0.09,0.116,0.133,0.176c1.023-0.845,1.689-2.108,1.689-3.538
					v-36.139c0-0.941-0.189-1.837-0.527-2.656l-26.806,19.544L422.132,247.449z"/>
			</g>
			<g style="opacity:0.69;">
				<g>
					<path style="fill:#FFFFFF;" d="M424.065,341.49h-52.203c-3.092,0-5.607-2.516-5.607-5.608v-30.3
						c0-3.725,3.03-6.755,6.755-6.755h48.689c4.396,0,7.974,3.576,7.974,7.973v29.082
						C429.672,338.975,427.156,341.49,424.065,341.49z M373.009,300.827c-2.622,0-4.755,2.133-4.755,4.755v30.3
						c0,1.989,1.618,3.608,3.607,3.608h52.203c1.989,0,3.607-1.619,3.607-3.608V306.8c0-3.293-2.68-5.973-5.974-5.973H373.009z"/>
					
						<rect x="365.353" y="328.548" transform="matrix(0.7469 -0.6649 0.6649 0.7469 -122.8625 336.3081)" style="fill:#FFFFFF;" width="29.99" height="2"/>
					
						<rect x="414.367" y="315.2" transform="matrix(0.6633 -0.7483 0.7483 0.6633 -107.2195 421.9765)" style="fill:#FFFFFF;" width="1.999" height="29.899"/>
				</g>
				<path style="fill:#FFFFFF;" d="M397.97,324.832c-0.801,0-1.602-0.25-2.284-0.752l-28.371-20.849l1.183-1.611l28.371,20.849
					c0.655,0.48,1.536,0.482,2.195,0.004l29.392-21.429l1.178,1.615l-29.393,21.429C399.563,324.584,398.766,324.832,397.97,324.832
					z"/>
			</g>
			<g>
				<circle style="fill:#FFA000;" cx="423.57" cy="201.183" r="12.562"/>
				<g>
					<g>
						<path style="fill:#FFFFFF;" d="M420.789,206.036h-1.377v-8.313l-1.397,0.857v-1.424l1.397-0.931h1.377V206.036z"/>
						<path style="fill:#FFFFFF;" d="M423.728,205.402c-0.475-0.491-0.712-1.174-0.712-2.051v-4.46c0-0.882,0.238-1.567,0.715-2.055
							c0.477-0.488,1.172-0.732,2.085-0.732c0.917,0,1.614,0.243,2.088,0.729c0.474,0.486,0.712,1.172,0.712,2.058v4.46
							c0,0.882-0.238,1.567-0.715,2.055c-0.477,0.488-1.172,0.732-2.085,0.732C424.898,206.138,424.202,205.893,423.728,205.402z
							 M426.892,204.447c0.232-0.254,0.348-0.62,0.348-1.096v-4.46c0-0.477-0.115-0.842-0.344-1.097
							c-0.229-0.254-0.59-0.381-1.08-0.381c-0.491,0-0.85,0.127-1.08,0.381c-0.229,0.254-0.344,0.62-0.344,1.097v4.46
							c0,0.477,0.116,0.843,0.347,1.096c0.232,0.254,0.591,0.381,1.077,0.381C426.302,204.828,426.661,204.702,426.892,204.447z"/>
					</g>
				</g>
			</g>
		</g>
		<g>
			<g>
				<g>
					<path style="fill:#2F7DED;" d="M144.779,197.676c-0.686,0-1.355-0.275-1.852-0.792l-8.466-8.788
						c-0.563-0.584-1.35-0.918-2.159-0.918l-83.177-0.097c-4.617,0-8.374-3.757-8.374-8.374v-31.539
						c0-4.618,3.757-8.374,8.375-8.374h88.701c5.258,0,9.536,4.277,9.536,9.535v46.767c0,1.057-0.634,1.996-1.614,2.392
						C145.434,197.614,145.105,197.676,144.779,197.676z M49.126,140.794c-3.516,0-6.375,2.859-6.375,6.374v31.539
						c0,3.515,2.859,6.374,6.375,6.374l83.177,0.097c1.35,0,2.661,0.558,3.599,1.531l8.465,8.788
						c0.245,0.255,0.525,0.178,0.635,0.135c0.109-0.044,0.362-0.184,0.362-0.537v-46.767c0-4.155-3.381-7.535-7.536-7.535H49.126z"
						/>
					<path style="fill:#FFA000;" d="M124.024,157.441h-21.311c-0.553,0-1-0.448-1-1c0-0.552,0.447-1,1-1h21.311c0.553,0,1,0.448,1,1
						C125.024,156.993,124.577,157.441,124.024,157.441z"/>
					<path style="fill:#FFA000;" d="M89.737,157.441H57.114c-0.553,0-1-0.448-1-1c0-0.552,0.447-1,1-1h32.623c0.553,0,1,0.448,1,1
						C90.737,156.993,90.29,157.441,89.737,157.441z"/>
					<path style="fill:#FFA000;" d="M124.024,165.035H70.35c-0.553,0-1-0.448-1-1c0-0.552,0.447-1,1-1h53.675c0.553,0,1,0.448,1,1
						C125.024,164.587,124.577,165.035,124.024,165.035z"/>
					<path style="fill:#FFA000;" d="M124.024,172.628H88.46c-0.553,0-1-0.448-1-1c0-0.552,0.447-1,1-1h35.564c0.553,0,1,0.448,1,1
						C125.024,172.18,124.577,172.628,124.024,172.628z"/>
				</g>
				<g>
					<path style="fill:#FFA000;" d="M133.348,143.887h-28.896c-0.922,0-1.805,0.375-2.445,1.04l-7.189,7.463
						c-0.837,0.869-2.306,0.276-2.306-0.93v-11.321v-28.391c0-4.003,3.245-7.248,7.248-7.248h34.739
						c3.257,0,5.898,2.641,5.898,5.898v26.441C140.395,140.732,137.24,143.887,133.348,143.887z"/>
					<path style="fill:#FFFFFF;" d="M107.756,125.068c0,1.367-1.108,2.474-2.474,2.474c-1.367,0-2.474-1.108-2.474-2.474
						s1.108-2.474,2.474-2.474C106.648,122.594,107.756,123.702,107.756,125.068z"/>
					<path style="fill:#FFFFFF;" d="M119.352,125.068c0,1.367-1.108,2.474-2.474,2.474c-1.366,0-2.474-1.108-2.474-2.474
						s1.108-2.474,2.474-2.474C118.245,122.594,119.352,123.702,119.352,125.068z"/>
					<circle style="fill:#FFFFFF;" cx="128.746" cy="125.068" r="2.474"/>
				</g>
			</g>
			<g>
				
					<ellipse transform="matrix(0.4481 -0.894 0.894 0.4481 -146.852 220.6205)" style="fill:#2F7DED;" cx="105.254" cy="229.245" rx="31.864" ry="31.864"/>
				<g>
					<g>
						<g>
							<path style="fill:#FFFFFF;" d="M105.254,246.732c-3.518,0-6.475-2.633-6.879-6.124l-0.13-1.115h14.017l-0.13,1.115
								C111.728,244.1,108.77,246.732,105.254,246.732z M100.624,241.493c0.692,1.907,2.52,3.239,4.63,3.239
								c2.109,0,3.937-1.332,4.629-3.239H100.624z"/>
							<path style="fill:#FFFFFF;" d="M117.56,234.876H92.948v-11.303c0-6.515,5.3-11.816,11.814-11.816h0.981
								c6.515,0,11.816,5.3,11.816,11.816V234.876z M94.948,232.876h20.611v-9.303c0-5.412-4.403-9.816-9.816-9.816h-0.981
								c-5.412,0-9.814,4.403-9.814,9.816V232.876z"/>
							<path style="fill:#FFFFFF;" d="M116.564,241.493H93.942c-2.297,0-4.166-1.869-4.166-4.165v-0.288
								c0-2.296,1.869-4.165,4.166-4.165h22.622c2.297,0,4.166,1.869,4.166,4.165v0.288
								C120.73,239.624,118.861,241.493,116.564,241.493z M93.948,234.876c-1.2,0-2.172,0.971-2.172,2.165v0.288
								c0,1.194,0.972,2.165,2.166,2.165h22.622c1.194,0,2.166-0.971,2.166-2.165v-0.288c0-1.194-0.972-2.165-2.166-2.165H93.948z"
								/>
						</g>
					</g>
				</g>
			</g>
			<g>
				
					<ellipse transform="matrix(0.7071 -0.7071 0.7071 0.7071 -5.0432 128.5263)" style="fill:#2F7DED;" cx="152.623" cy="70.351" rx="20.007" ry="20.007"/>
				<g>
					<g>
						<path style="fill:#FFFFFF;" d="M151.513,62.434h2.221v11.772h-2.221V62.434z M151.513,76.047h2.221v2.221h-2.221V76.047z"/>
					</g>
				</g>
			</g>
		</g>
		<g>
			<path style="fill:#FFA000;" d="M422.581,114.994H317.681c-5.575,0-10.094,4.519-10.094,10.094v39.54v15.767
				c0,1.68,2.046,2.506,3.212,1.295l10.012-10.393c0.891-0.925,2.121-1.448,3.405-1.448l98.364-0.114
				c4.817,0,8.721-3.905,8.721-8.721v-37.298C431.302,118.898,427.397,114.994,422.581,114.994z"/>
			<path style="fill:#FFFFFF;" d="M359.207,135.681h-25.202c-0.553,0-1-0.448-1-1c0-0.552,0.447-1,1-1h25.202c0.553,0,1,0.448,1,1
				C360.207,135.233,359.76,135.681,359.207,135.681z"/>
			<path style="fill:#FFFFFF;" d="M413.134,135.681h-38.581c-0.553,0-1-0.448-1-1c0-0.552,0.447-1,1-1h38.581c0.553,0,1,0.448,1,1
				C414.134,135.233,413.686,135.681,413.134,135.681z"/>
			<path style="fill:#FFFFFF;" d="M397.481,144.662h-63.477c-0.553,0-1-0.448-1-1c0-0.552,0.447-1,1-1h63.477c0.553,0,1,0.448,1,1
				C398.481,144.214,398.034,144.662,397.481,144.662z"/>
			<path style="fill:#FFFFFF;" d="M376.064,153.642h-42.059c-0.553,0-1-0.448-1-1s0.447-1,1-1h42.059c0.553,0,1,0.448,1,1
				S376.616,153.642,376.064,153.642z"/>
			<g>
				<path style="fill:#2F7DED;" d="M289.211,117.088h29.226c0.933,0,1.826,0.38,2.473,1.051l7.271,7.548
					c0.847,0.879,2.333,0.28,2.333-0.941v-11.45V84.582c0-4.049-3.282-7.33-7.33-7.33h-35.135c-3.295,0-5.965,2.671-5.965,5.965
					v26.743C282.083,113.897,285.275,117.088,289.211,117.088z"/>
				<path style="fill:#FFFFFF;" d="M315.095,98.055c0,1.382,1.12,2.502,2.502,2.502c1.382,0,2.502-1.12,2.502-2.502
					c0-1.382-1.12-2.502-2.502-2.502C316.216,95.552,315.095,96.673,315.095,98.055z"/>
				<path style="fill:#FFFFFF;" d="M303.367,98.055c0,1.382,1.12,2.502,2.502,2.502c1.382,0,2.502-1.12,2.502-2.502
					c0-1.382-1.12-2.502-2.502-2.502C304.487,95.552,303.367,96.673,303.367,98.055z"/>
				<path style="fill:#FFFFFF;" d="M291.363,98.055c0,1.382,1.12,2.502,2.502,2.502c1.382,0,2.502-1.12,2.502-2.502
					c0-1.382-1.12-2.502-2.502-2.502C292.483,95.552,291.363,96.673,291.363,98.055z"/>
			</g>
			<g>
				
					<ellipse transform="matrix(0.7071 -0.7071 0.7071 0.7071 38.7109 337.749)" style="fill:#2F7DED;" cx="427.055" cy="122.146" rx="15.534" ry="15.534"/>
				<g>
					<g>
						<path style="fill:#FFFFFF;" d="M428.833,129.402h-2.137v-12.907l-2.168,1.331v-2.211l2.168-1.446h2.137V129.402z"/>
					</g>
				</g>
			</g>
		</g>
	</g>
	<g style="opacity:0.61;">
		<path style="fill:#FFFFFF;" d="M292.462,347.601h-26.175c-0.553,0-1-0.447-1-1c0-0.553,0.447-1,1-1h26.175c0.553,0,1,0.447,1,1
			C293.462,347.153,293.015,347.601,292.462,347.601z"/>
		<path style="fill:#FFFFFF;" d="M348.471,347.601H308.4c-0.553,0-1-0.447-1-1c0-0.553,0.447-1,1-1h40.07c0.553,0,1,0.447,1,1
			C349.471,347.153,349.023,347.601,348.471,347.601z"/>
		<path style="fill:#FFFFFF;" d="M332.215,356.927h-65.928c-0.553,0-1-0.447-1-1c0-0.553,0.447-1,1-1h65.928c0.553,0,1,0.447,1,1
			C333.215,356.479,332.768,356.927,332.215,356.927z"/>
		<path style="fill:#FFFFFF;" d="M309.969,366.254h-43.682c-0.553,0-1-0.447-1-1s0.447-1,1-1h43.682c0.553,0,1,0.447,1,1
			S310.522,366.254,309.969,366.254z"/>
		<path style="fill:#FFFFFF;" d="M123.76,332.843H56.114c-0.553,0-1-0.447-1-1c0-0.553,0.447-1,1-1h67.646c0.553,0,1,0.447,1,1
			C124.76,332.396,124.313,332.843,123.76,332.843z"/>
		<path style="fill:#FFFFFF;" d="M123.76,311.94H56.114c-0.553,0-1-0.447-1-1c0-0.553,0.447-1,1-1h67.646c0.553,0,1,0.447,1,1
			C124.76,311.493,124.313,311.94,123.76,311.94z"/>
		<path style="fill:#FFFFFF;" d="M123.76,322.392H87.29c-0.553,0-1-0.447-1-1s0.447-1,1-1h36.47c0.553,0,1,0.447,1,1
			S124.313,322.392,123.76,322.392z"/>
		<path style="fill:#FFFFFF;" d="M123.76,300.856H87.29c-0.553,0-1-0.447-1-1c0-0.553,0.447-1,1-1h36.47c0.553,0,1,0.447,1,1
			C124.76,300.409,124.313,300.856,123.76,300.856z"/>
		<path style="fill:#FFFFFF;" d="M123.76,290.881H99.164c-0.553,0-1-0.447-1-1c0-0.553,0.447-1,1-1h24.596c0.553,0,1,0.447,1,1
			C124.76,290.434,124.313,290.881,123.76,290.881z"/>
	</g>
	<g>
		<path style="fill:#233863;" d="M273.175,139.664c-0.029-0.013-0.105-0.014-0.086-0.039c12.252-16.337-3.083-38.026-16.442-39.366
			c-4.553-5.673-10.658-10.26-18.078-13.005c-3.928-1.453-7.964-2.254-11.985-2.471c-0.073-10.113-8.287-18.289-18.417-18.289
			c-10.175,0-18.423,8.248-18.423,18.423c0,4.732,1.799,9.033,4.732,12.296c-2.967,3.007-5.514,6.497-7.486,10.427
			c-0.466,0.929-0.881,1.869-1.272,2.813c-14.948-0.504-27.791,10.816-28.972,25.876c-0.835,10.653,4.38,20.383,12.757,25.815
			c-5.085,2.681-8.303,6.374-8.638,10.65c-0.39,4.975,3.203,9.778,9.296,13.494c-1.262,2.543-1.966,5.35-1.966,8.303
			c0,11.451,10.523,20.734,23.503,20.734c8.773,0,16.419-4.244,20.456-10.529c2.804,1.822,5.902,3.503,9.25,4.96
			c17.296,7.527,34.492,6.332,38.409-2.669c1.06-2.436,1.031-5.195,0.093-8.071c1.041-0.175,2.063-0.411,3.059-0.729
			C297.915,187.125,302.629,153.002,273.175,139.664z"/>
		<g>
			<g>
				<g>
					<g>
						<path style="fill:#2F7DED;" d="M279.753,288.766l-2.337-6.594l17.533-9.998l0.552-0.315v-1.713
							c0-32.22-20.705-58.34-46.246-58.34h-27.114l0.35,0.646l-47.818,0.386c-11.922,0.096-22.028,8.66-25.962,20.634
							l-33.682,75.181l4.847,0.593l27.624,3.38l0.624,76.422l118.434,0.031l3.91-62.364l4.452-7.273l2.146-3.506
							C281.934,307.983,282.945,297.768,279.753,288.766z"/>
					</g>
					<path style="fill:#374081;" d="M180.708,317.031l-28.049-3.271c-0.274-0.032-0.471-0.28-0.439-0.555
						c0.032-0.275,0.287-0.463,0.555-0.439l27.162,3.167l7.712-33.282c0.063-0.268,0.331-0.436,0.601-0.374
						c0.269,0.063,0.437,0.331,0.374,0.601L180.708,317.031z"/>
					<g>
						<path style="fill:#233863;" d="M209.983,245.434c-16.356,0-29.662-13.306-29.662-29.662v-3.347
							c0-0.401,0.324-0.725,0.725-0.725s0.725,0.324,0.725,0.725v3.347c0,15.556,12.656,28.212,28.212,28.212
							s28.211-12.656,28.211-28.212v-3.347c0-0.401,0.324-0.725,0.725-0.725s0.725,0.324,0.725,0.725v3.347
							C239.643,232.128,226.338,245.434,209.983,245.434z"/>
						<path style="fill:#233863;" d="M190.183,229.292c-0.232,0-0.46-0.112-0.6-0.318c-2.76-4.076-4.219-8.842-4.219-13.784v-2.764
							c0-0.401,0.324-0.725,0.725-0.725c0.4,0,0.725,0.324,0.725,0.725v2.764c0,4.65,1.373,9.137,3.97,12.972
							c0.225,0.331,0.137,0.781-0.194,1.006C190.465,229.252,190.323,229.292,190.183,229.292z"/>
						<path style="fill:#233863;" d="M209.983,239.807c-5.64,0-10.944-1.854-15.34-5.362c-0.313-0.249-0.365-0.705-0.115-1.018
							c0.252-0.314,0.708-0.361,1.018-0.115c4.137,3.3,9.13,5.045,14.437,5.045c5.3,0,10.287-1.741,14.423-5.034
							c0.311-0.252,0.77-0.198,1.018,0.115c0.251,0.313,0.198,0.768-0.115,1.018C220.915,237.957,215.615,239.807,209.983,239.807z"
							/>
						<path style="fill:#233863;" d="M230.774,227.697c-0.122,0-0.245-0.03-0.358-0.095c-0.348-0.197-0.47-0.64-0.272-0.988
							c1.967-3.466,3.007-7.416,3.007-11.425v-2.764c0-0.401,0.324-0.725,0.725-0.725s0.725,0.324,0.725,0.725v2.764
							c0,4.26-1.105,8.457-3.197,12.141C231.271,227.565,231.026,227.697,230.774,227.697z"/>
					</g>
				</g>
			</g>
			<g>
				<g>
					<path style="fill:#FFBA94;" d="M280.506,409.29l-18.681-28.092c-4.26-5.462-6.711-12.084-11.676-13.436l-3.346-0.852
						l0.021-0.053l-83.785-20.82l6.912-30.664l-50.074-6.126l-15.464,51.005c-1.01,4.397-0.961,8.79-0.022,12.913
						c2.408,12.884,13.583,23.059,27.577,23.304l88.341-0.221c9.175,9.607,37.863,29.277,37.863,29.277
						c1.351,1.176,3.419,1.033,4.595-0.319c0.768-0.883,0.963-2.068,0.637-3.115c0.147-0.027,0.235-0.045,0.235-0.045
						c0.092,0.026,0.168,0.037,0.258,0.061l1.225,1.189c1.422,1.381,3.716,1.347,5.096-0.076l0.088-0.09
						c0.619-0.638,0.938-1.453,0.991-2.28l0.026,0.027c1.386,1.417,3.679,1.443,5.097,0.057l0.09-0.088
						c1.417-1.386,1.443-3.679,0.057-5.097l-0.345-0.353c-0.048-0.129-0.098-0.255-0.149-0.378c1.36,0.766,3.119,0.6,4.288-0.544
						l0.09-0.088C281.866,413.001,281.892,410.707,280.506,409.29z"/>
					<path style="fill:#FB8E77;" d="M276.35,415.553c-0.13,0-0.26-0.05-0.357-0.15l-11.111-11.364
						c-0.193-0.197-0.189-0.514,0.008-0.707c0.199-0.191,0.516-0.19,0.707,0.008l11.111,11.364c0.193,0.197,0.19,0.514-0.008,0.707
						C276.602,415.505,276.476,415.553,276.35,415.553z"/>
					<path style="fill:#FB8E77;" d="M270.448,420.009c-0.13,0-0.26-0.05-0.357-0.15l-11.111-11.364
						c-0.193-0.197-0.189-0.514,0.008-0.707c0.199-0.191,0.516-0.189,0.707,0.008l11.111,11.364
						c0.193,0.197,0.189,0.514-0.008,0.707C270.7,419.961,270.574,420.009,270.448,420.009z"/>
					<path style="fill:#FB8E77;" d="M263.432,422.333c-0.125,0-0.25-0.047-0.347-0.14l-11.449-11.024
						c-0.199-0.191-0.205-0.508-0.014-0.707c0.193-0.198,0.51-0.203,0.707-0.014l11.449,11.024c0.199,0.191,0.205,0.508,0.014,0.707
						C263.693,422.281,263.563,422.333,263.432,422.333z"/>
				</g>
				<path style="fill:#FB8E77;" d="M171.427,348.621c-0.051,0-0.103-0.008-0.153-0.024l-25.787-8.287
					c-0.263-0.084-0.407-0.365-0.322-0.629c0.083-0.263,0.367-0.407,0.629-0.322l25.787,8.287c0.263,0.084,0.407,0.365,0.322,0.629
					C171.835,348.486,171.639,348.621,171.427,348.621z"/>
			</g>
		</g>
		<g>
			<g>
				<path style="fill:#FFBA94;" d="M234.014,125.731c-4.923,0.739-9.592,5.29-13.333,10.292c-0.579,0.773-1.212,1.481-1.891,2.122
					c-5.009,4.726-12.281,5.188-17.941,2.093l-1.378-0.245c-6.139-1.094-12.001,2.996-13.095,9.135l-0.037,0.209
					c-1.094,6.139,2.996,12.001,9.135,13.095l2.776,0.495l-0.731,4.103c-0.44,2.472-0.559,4.927-0.392,7.323l-6.449,36.198
					c-1.867,10.479,5.114,20.487,15.593,22.354c10.479,1.867,20.487-5.114,22.354-15.593l2.576-14.457
					c14.226,0.061,26.863-10.094,29.443-24.579l0.494-2.774c0,0,0,0,0-0.001v0l6.123-34.366
					C260.369,140.284,235.982,136.519,234.014,125.731z"/>
			</g>
			<path style="opacity:0.46;fill:#FB8E77;" d="M226.558,199.623l-0.553-0.098c-14.919-2.658-25.255-15.985-24.554-30.729
				c0.115-2.413-1.09-4.696-3.202-5.869l-0.731,4.103c-1.613,9.055,1.048,17.881,6.534,24.413l24.29,27.656l2.848-15.986
				l-0.599-0.258c14.473,0.359,27.435-9.888,30.052-24.579l0.494-2.774C258.249,191.712,242.767,202.511,226.558,199.623z"/>
			<path style="fill:#FB8E77;" d="M231.189,191.817c-0.132,0-0.265-0.053-0.362-0.156c-0.189-0.2-0.182-0.516,0.018-0.706
				c0.028-0.027,2.866-2.67,6.204-0.915c0.244,0.128,0.339,0.431,0.21,0.675c-0.128,0.246-0.432,0.338-0.675,0.21
				c-2.698-1.418-4.956,0.666-5.051,0.755C231.436,191.771,231.313,191.817,231.189,191.817z"/>
			<g>
				<path style="fill:#233863;" d="M239.265,158.905c-0.18,1.013-1.148,1.688-2.161,1.507c-1.013-0.18-1.688-1.148-1.507-2.161
					c0.181-1.013,1.148-1.688,2.161-1.507C238.77,156.925,239.445,157.892,239.265,158.905z"/>
				<path style="fill:#233863;" d="M261.313,162.833c-0.181,1.013-1.148,1.688-2.161,1.507c-1.013-0.18-1.688-1.148-1.507-2.161
					c0.18-1.013,1.148-1.688,2.161-1.507C260.818,160.853,261.493,161.82,261.313,162.833z"/>
				<path style="fill:#FB8E77;" d="M243.405,172.998c-0.912,0-1.98-0.164-3.227-0.574c-0.263-0.086-0.405-0.369-0.318-0.631
					c0.087-0.263,0.369-0.405,0.631-0.319c4.204,1.385,6.002-0.342,6.578-1.149c0.105-0.147,0.147-0.329,0.12-0.512l-2.146-14.09
					c-0.042-0.273,0.146-0.528,0.419-0.569c0.268-0.042,0.528,0.145,0.569,0.419l2.146,14.091c0.067,0.441-0.037,0.882-0.294,1.242
					C247.36,171.638,246.033,172.998,243.405,172.998z"/>
				<path style="fill:#FFFFFF;" d="M229.234,183.812l-3.861-2.229c-4.783-2.761-6.422-8.877-3.66-13.66l0.285-0.493l14.674,8.472
					l-4.042,7.001C231.943,184.091,230.423,184.498,229.234,183.812z"/>
				<path style="fill:#FFFFFF;" d="M231.544,167.803c-6.434,0-11.67-5.23-11.678-11.665l0,0c-0.007-6.439,5.227-11.683,11.666-11.69
					c0.004,0,0.009,0,0.013,0c3.114,0,6.043,1.211,8.248,3.412c2.208,2.204,3.426,5.135,3.429,8.254
					c0.007,6.439-5.227,11.683-11.665,11.689C231.553,167.803,231.548,167.803,231.544,167.803z M221.866,156.136
					c0.006,5.333,4.347,9.667,9.678,9.667c0.004,0,0.007,0,0.011,0c5.336-0.005,9.672-4.351,9.667-9.688
					c-0.003-2.585-1.012-5.014-2.842-6.84c-1.827-1.823-4.254-2.827-6.835-2.827c-0.004,0-0.007,0-0.011,0
					C226.198,146.454,221.861,150.799,221.866,156.136L221.866,156.136z"/>
				<path style="fill:#FFFFFF;" d="M258.097,172.972c-6.433,0-11.67-5.23-11.678-11.665l0,0
					c-0.007-6.439,5.227-11.683,11.665-11.689c0.004,0,0.009,0,0.013,0c6.434,0,11.67,5.23,11.678,11.665
					c0.007,6.439-5.227,11.683-11.666,11.69C258.104,172.972,258.101,172.972,258.097,172.972z M248.419,161.304
					c0.006,5.333,4.347,9.667,9.678,9.667c0.004,0,0.006,0,0.01,0c5.336-0.006,9.673-4.352,9.668-9.688
					c-0.006-5.333-4.347-9.667-9.678-9.667c-0.004,0-0.007,0-0.011,0C252.75,151.622,248.414,155.968,248.419,161.304
					L248.419,161.304z"/>
				<path style="fill:#FFFFFF;" d="M247.115,159.995c-0.032,0-0.064-0.001-0.098-0.005l-4.159-0.405
					c-0.55-0.053-0.952-0.543-0.898-1.092c0.053-0.55,0.537-0.958,1.092-0.898l4.159,0.405c0.55,0.053,0.952,0.543,0.898,1.092
					C248.06,159.608,247.624,159.995,247.115,159.995z"/>
				<g>
					<g>
						<g>
							<g>
								<g>
									<path style="fill:#233863;" d="M230.007,140.565c0.637,0.235,1.439,0.114,2.22,0.042c0.785-0.089,1.576-0.16,2.265-0.196
										c0.691-0.037,1.485-0.053,2.276-0.048c0.785-0.012,1.599,0.021,2.198-0.281c0.579-0.283,0.782-1.014,0.032-1.858
										c-0.705-0.824-2.479-1.665-4.765-1.548c-2.283,0.129-3.928,1.155-4.514,2.048
										C229.093,139.643,229.394,140.346,230.007,140.565z"/>
								</g>
							</g>
							<g>
								<g>
									<path style="fill:#233863;" d="M264.45,146.431c-0.679-0.009-1.384-0.41-2.087-0.758c-0.701-0.366-1.414-0.715-2.044-0.997
										c-0.631-0.283-1.367-0.583-2.106-0.863c-0.728-0.294-1.5-0.555-1.951-1.051c-0.439-0.472-0.365-1.227,0.638-1.746
										c0.954-0.516,2.912-0.663,5.003,0.268c2.084,0.94,3.251,2.488,3.477,3.533C265.635,145.899,265.101,146.448,264.45,146.431
										z"/>
								</g>
							</g>
						</g>
					</g>
				</g>
				<path style="fill:#FB8E77;" d="M193.367,154.436c-0.223,0-0.426-0.15-0.484-0.376c-0.068-0.268,0.093-0.54,0.36-0.609
					l3.563-0.916l-1.618-5.973c-0.072-0.267,0.085-0.541,0.351-0.613c0.271-0.076,0.541,0.085,0.613,0.352l1.884,6.952l-4.546,1.168
					C193.45,154.431,193.408,154.436,193.367,154.436z"/>
			</g>
		</g>
		<g>
			<g>
				<g>
					<path style="fill:#233863;" d="M320.517,253.948h-27.555c-2.697,0-4.884-2.186-4.884-4.883v-52.958
						c0-2.697,2.186-4.883,4.884-4.883h27.555c2.697,0,4.883,2.186,4.883,4.883v52.958
						C325.401,251.761,323.214,253.948,320.517,253.948z"/>
				</g>
			</g>
			<g>
				<g>
					<path style="fill:#FFBA94;" d="M344.119,300.188l-3.065-55.589l0.727-6.745c1.017-9.436-1.765-18.87-7.669-26.3
						c-0.562-0.707-1.117-1.41-1.668-2.075v-9.071c0-1.98-1.605-3.585-3.585-3.585c-1.91,0-3.458,1.548-3.458,3.458v3.443
						c0,6.547-5.302,11.856-11.849,11.865l-10.349,0.014l-15.487-1.323c-2.014-0.172-3.803,1.335-3.975,3.35
						c-0.141,1.653,0.857,3.139,2.331,3.719c-0.136,0.041-0.273,0.085-0.412,0.134l-0.431-0.037
						c-2.014-0.172-3.803,1.335-3.975,3.35l0,0c-0.172,2.014,1.335,3.803,3.349,3.975l0.009,0.001
						c-0.63,0.579-1.073,1.367-1.175,2.279c-0.224,2.009,1.236,3.837,3.245,4.061l1.626,0.182c0.075,0.054,0.144,0.107,0.223,0.162
						c0,0,0.042,0.08,0.115,0.211c-1.017,0.413-1.811,1.32-2.004,2.477c-0.296,1.771,0.91,3.462,2.681,3.758
						c0,0,11.389,3.75,16.306,5.136l-4.164,21.563l-0.888,4.598l-5.629-1.025l-17.533,9.998l2.337,6.594
						c3.191,9.002,2.181,19.218-2.688,27.171l-2.146,3.506l8.565,3.518c10.813,4.441,26.457,9.06,38.044,6.31
						c3.759-0.892,6.673-1.971,8.938-3.246C338.809,321.668,344.611,311.724,344.119,300.188z"/>
					<g>
						<path style="fill:#FB8E77;" d="M301.716,223.018c-0.015,0-0.029-0.001-0.044-0.002l-15.872-1.355
							c-0.274-0.023-0.479-0.266-0.455-0.54c0.023-0.275,0.278-0.478,0.541-0.456l15.872,1.355c0.274,0.023,0.478,0.266,0.455,0.54
							C302.19,222.821,301.973,223.018,301.716,223.018z"/>
						<path style="fill:#FB8E77;" d="M302.028,230.423c-0.015,0-0.029-0.001-0.044-0.002l-15.872-1.355
							c-0.274-0.023-0.479-0.266-0.455-0.54c0.023-0.275,0.273-0.48,0.541-0.456l15.872,1.355c0.274,0.023,0.478,0.266,0.455,0.54
							C302.503,230.226,302.285,230.423,302.028,230.423z"/>
						<path style="fill:#FB8E77;" d="M304.653,237.811c-0.02,0-0.039-0.001-0.059-0.003l-15.824-1.834
							c-0.274-0.032-0.471-0.28-0.439-0.554c0.032-0.275,0.289-0.47,0.555-0.439l15.824,1.834c0.274,0.032,0.471,0.28,0.439,0.554
							C305.119,237.624,304.903,237.811,304.653,237.811z"/>
					</g>
					<g>
						<path style="fill:#FB8E77;" d="M294.092,299.84c-0.037,0-0.076-0.004-0.115-0.014c-0.269-0.064-0.435-0.332-0.371-0.602
							l7.935-33.65c0.063-0.267,0.324-0.439,0.602-0.371c0.268,0.064,0.434,0.332,0.371,0.602l-7.936,33.65
							C294.524,299.685,294.319,299.84,294.092,299.84z"/>
					</g>
				</g>
				<path style="fill:#374081;" d="M277.179,282.882l-10.108-23.393c-0.109-0.253,0.007-0.548,0.261-0.657
					c0.252-0.111,0.547,0.006,0.657,0.261l9.665,22.367l17.6-10.036c0.239-0.134,0.545-0.053,0.683,0.187
					c0.137,0.24,0.053,0.546-0.186,0.683L277.179,282.882z"/>
			</g>
		</g>
	</g>
</g>
<g id="DESIGNED_BY_FREEPIK">
	<g>
		<g>
			<g id="XMLID_197_">
				<g id="XMLID_216_">
					<path id="XMLID_224_" d="M260.064,463.607c-0.43,0.441-0.8,0.927-1.104,1.447l-0.463-0.24c-0.067-0.296-0.348-0.5-0.656-0.464
						c-0.33,0.039-0.565,0.337-0.527,0.667c0.039,0.33,0.337,0.565,0.667,0.527c0.065-0.008,0.126-0.026,0.183-0.052l0.45,0.233
						c-0.25,0.552-0.431,1.134-0.537,1.737l0.743,0.131c0.229-1.301,0.846-2.497,1.785-3.459L260.064,463.607z"/>
					<path id="XMLID_223_" d="M265.53,461.314c-0.17,0-0.339,0.006-0.508,0.017l-0.073-0.624c0.187-0.149,0.295-0.388,0.265-0.642
						c-0.046-0.392-0.401-0.672-0.792-0.625c-0.392,0.046-0.672,0.401-0.626,0.792c0.03,0.253,0.189,0.459,0.403,0.561l0.073,0.622
						c-0.711,0.116-1.397,0.331-2.051,0.643l0.326,0.681c0.93-0.445,1.934-0.671,2.983-0.671c0.494,0,0.989,0.053,1.469,0.157
						l0.16-0.738C266.626,461.373,266.078,461.314,265.53,461.314z"/>
					<path id="XMLID_222_" d="M272.106,463.852c0.329-0.04,0.564-0.34,0.523-0.67c-0.04-0.329-0.34-0.564-0.67-0.523
						c-0.308,0.038-0.533,0.303-0.528,0.606l-0.414,0.362c-0.416-0.428-0.886-0.81-1.402-1.135l-0.402,0.639
						c1.13,0.712,2.012,1.719,2.553,2.914l0.688-0.311c-0.25-0.552-0.565-1.068-0.938-1.539l0.4-0.349
						C271.977,463.856,272.04,463.859,272.106,463.852z"/>
					<path id="XMLID_221_" d="M264.984,471.482c-0.384,0.023-0.772,0.035-1.152,0.035c-0.877,0-1.726-0.06-2.469-0.178
						c-0.389-0.062-0.843-0.154-1.265-0.291c1.042,1.854,3.057,3.113,5.367,3.113c2.844,0,5.241-1.909,5.926-4.486
						c-0.679,0.448-1.499,0.822-2.449,1.118C267.767,471.159,266.398,471.397,264.984,471.482z"/>
					<path id="XMLID_217_" d="M265.53,462.824c-3.339,0-6.055,2.656-6.055,5.92c0,0.424,0.046,0.846,0.137,1.256
						c0.671,0.481,2.695,0.886,5.326,0.728c2.868-0.173,5.276-0.954,6.646-2.15c-0.005-0.194-0.021-0.388-0.045-0.579
						C271.159,465.049,268.576,462.824,265.53,462.824z M263.379,469.313c-1.016,0-1.842-0.826-1.842-1.842s0.827-1.842,1.842-1.842
						c1.016,0,1.842,0.827,1.842,1.842S264.395,469.313,263.379,469.313z M268.097,468.409c-0.747,0-1.355-0.608-1.355-1.355
						s0.608-1.355,1.355-1.355c0.747,0,1.355,0.608,1.355,1.355S268.845,468.409,268.097,468.409z"/>
				</g>
				<path id="XMLID_214_" d="M281.469,464.684c-0.294-0.116-0.802-0.308-1.377-0.236c-0.549,0.068-0.84,0.339-0.84,1.003v0.862
					h2.219v1.71h-2.219v5.433h-1.924v-5.433h-1.334v-1.71h1.334v-0.885c0-1.673,0.892-2.772,2.558-2.772
					c0.64,0,1.152,0.121,1.584,0.307L281.469,464.684z"/>
				<path id="XMLID_212_" d="M286.153,468.003c-0.176-0.03-0.356-0.046-0.524-0.046c-0.892,0-1.504,0.546-1.504,1.607v3.892h-1.924
					v-7.143h1.865v0.781c0.45-0.671,1.135-0.973,2.013-0.973c0.413,0,0.844,0.127,1.09,0.335L286.153,468.003z"/>
				<path id="XMLID_209_" d="M293.79,469.874c0,0.221-0.015,0.487-0.037,0.649h-5.064c0.206,1.032,0.929,1.482,1.836,1.482
					c0.619,0,1.29-0.251,1.806-0.685l1.128,1.238c-0.811,0.745-1.843,1.084-3.044,1.084c-2.19,0-3.708-1.489-3.708-3.737
					c0-2.249,1.474-3.782,3.612-3.782C292.374,466.121,293.782,467.647,293.79,469.874z M288.696,469.21h3.162
					c-0.177-0.914-0.73-1.43-1.555-1.43C289.396,467.78,288.865,468.326,288.696,469.21z"/>
				<path id="XMLID_206_" d="M301.412,469.874c0,0.221-0.015,0.487-0.037,0.649h-5.064c0.206,1.032,0.929,1.482,1.836,1.482
					c0.619,0,1.29-0.251,1.806-0.685l1.128,1.238c-0.811,0.745-1.843,1.084-3.045,1.084c-2.19,0-3.708-1.489-3.708-3.737
					c0-2.249,1.474-3.782,3.612-3.782C299.997,466.121,301.405,467.647,301.412,469.874z M296.318,469.21h3.163
					c-0.177-0.914-0.73-1.43-1.555-1.43C297.019,467.78,296.488,468.326,296.318,469.21z"/>
				<path id="XMLID_203_" d="M309.725,469.881c0,2.145-1.489,3.76-3.457,3.76c-0.958,0-1.637-0.376-2.101-0.929v3.693h-1.917
					v-10.092h1.88v0.789c0.465-0.582,1.15-0.98,2.131-0.98C308.236,466.121,309.725,467.736,309.725,469.881z M304.07,469.881
					c0,1.128,0.745,1.968,1.836,1.968c1.135,0,1.843-0.877,1.843-1.968c0-1.091-0.708-1.968-1.843-1.968
					C304.815,467.913,304.07,468.753,304.07,469.881z"/>
				<path id="XMLID_200_" d="M312.816,463.976c0,0.693-0.538,1.224-1.231,1.224c-0.693,0-1.224-0.531-1.224-1.224
					c0-0.693,0.531-1.238,1.224-1.238C312.277,462.738,312.816,463.283,312.816,463.976z M312.558,473.456h-1.924v-7.143h1.924
					V473.456z"/>
				<path id="XMLID_198_" d="M315.768,468.856l2.691-2.543h2.359l-3.465,3.362l3.487,3.782h-2.366l-2.705-2.89v2.89h-1.924v-10.616
					h1.924V468.856z"/>
			</g>
			<g>
				<path d="M184.674,473.392v-1.051c-0.525,0.715-1.386,1.226-2.378,1.226c-1.838,0-3.137-1.4-3.137-3.691
					c0-2.247,1.284-3.706,3.137-3.706c0.948,0,1.809,0.467,2.378,1.24v-3.75h1.095v9.731H184.674z M184.674,471.48v-3.195
					c-0.394-0.613-1.24-1.138-2.115-1.138c-1.415,0-2.261,1.167-2.261,2.728c0,1.561,0.846,2.714,2.261,2.714
					C183.434,472.589,184.28,472.093,184.674,471.48z"/>
				<path d="M187.184,469.861c0-2.043,1.459-3.691,3.472-3.691c2.13,0,3.385,1.663,3.385,3.779v0.277h-5.704
					c0.088,1.328,1.021,2.436,2.539,2.436c0.802,0,1.619-0.321,2.174-0.89l0.525,0.715c-0.7,0.7-1.648,1.079-2.801,1.079
					C188.686,473.567,187.184,472.064,187.184,469.861z M190.641,467.075c-1.503,0-2.247,1.269-2.305,2.349h4.625
					C192.946,468.373,192.246,467.075,190.641,467.075z"/>
				<path d="M194.828,472.458l0.569-0.788c0.467,0.54,1.357,1.007,2.32,1.007c1.08,0,1.663-0.511,1.663-1.211
					c0-1.707-4.362-0.656-4.362-3.268c0-1.094,0.948-2.028,2.626-2.028c1.196,0,2.043,0.452,2.612,1.021l-0.511,0.759
					c-0.423-0.511-1.196-0.89-2.101-0.89c-0.963,0-1.561,0.482-1.561,1.109c0,1.546,4.362,0.525,4.362,3.268
					c0,1.182-0.948,2.13-2.772,2.13C196.52,473.567,195.543,473.216,194.828,472.458z"/>
				<path d="M201.671,464.609c0-0.408,0.335-0.744,0.729-0.744c0.408,0,0.744,0.336,0.744,0.744c0,0.409-0.335,0.729-0.744,0.729
					C202.006,465.338,201.671,465.017,201.671,464.609z M201.86,473.392v-7.047h1.094v7.047H201.86z"/>
				<path d="M204.763,475.201l0.554-0.817c0.583,0.7,1.284,0.963,2.291,0.963c1.167,0,2.261-0.569,2.261-2.116v-1.007
					c-0.511,0.715-1.371,1.255-2.364,1.255c-1.838,0-3.137-1.371-3.137-3.647c0-2.261,1.284-3.662,3.137-3.662
					c0.949,0,1.795,0.467,2.364,1.24v-1.065h1.094v6.842c0,2.334-1.634,3.064-3.355,3.064
					C206.412,476.251,205.595,476.018,204.763,475.201z M209.87,471.364v-3.078c-0.379-0.613-1.226-1.138-2.101-1.138
					c-1.415,0-2.261,1.124-2.261,2.684c0,1.547,0.846,2.685,2.261,2.685C208.644,472.516,209.49,471.977,209.87,471.364z"/>
				<path d="M217.543,473.392v-4.61c0-1.24-0.627-1.634-1.576-1.634c-0.861,0-1.678,0.525-2.086,1.094v5.15h-1.095v-7.047h1.095
					v1.021c0.496-0.583,1.459-1.196,2.509-1.196c1.474,0,2.247,0.744,2.247,2.276v4.946H217.543z"/>
				<path d="M220.053,469.861c0-2.043,1.459-3.691,3.472-3.691c2.13,0,3.385,1.663,3.385,3.779v0.277h-5.704
					c0.087,1.328,1.021,2.436,2.538,2.436c0.802,0,1.619-0.321,2.174-0.89l0.525,0.715c-0.7,0.7-1.649,1.079-2.801,1.079
					C221.555,473.567,220.053,472.064,220.053,469.861z M223.51,467.075c-1.503,0-2.247,1.269-2.305,2.349h4.625
					C225.815,468.373,225.115,467.075,223.51,467.075z"/>
				<path d="M233.417,473.392v-1.051c-0.525,0.715-1.386,1.226-2.378,1.226c-1.838,0-3.137-1.4-3.137-3.691
					c0-2.247,1.284-3.706,3.137-3.706c0.948,0,1.809,0.467,2.378,1.24v-3.75h1.094v9.731H233.417z M233.417,471.48v-3.195
					c-0.394-0.613-1.24-1.138-2.116-1.138c-1.415,0-2.261,1.167-2.261,2.728c0,1.561,0.846,2.714,2.261,2.714
					C232.176,472.589,233.022,472.093,233.417,471.48z"/>
				<path d="M239.733,473.392v-9.731h1.094v3.75c0.569-0.773,1.415-1.24,2.378-1.24c1.838,0,3.137,1.459,3.137,3.706
					c0,2.29-1.298,3.691-3.137,3.691c-0.992,0-1.853-0.51-2.378-1.226v1.051H239.733z M242.928,472.589
					c1.43,0,2.276-1.152,2.276-2.714c0-1.561-0.846-2.728-2.276-2.728c-0.861,0-1.721,0.525-2.101,1.138v3.195
					C241.207,472.093,242.068,472.589,242.928,472.589z"/>
				<path d="M247.538,475.157c0.16,0.073,0.423,0.117,0.598,0.117c0.481,0,0.802-0.161,1.05-0.744l0.467-1.065l-2.947-7.12h1.182
					l2.349,5.777l2.334-5.777h1.196l-3.531,8.477c-0.423,1.021-1.138,1.415-2.072,1.43c-0.233,0-0.598-0.044-0.802-0.102
					L247.538,475.157z"/>
			</g>
		</g>
	</g>
</g>
</svg>
